<?xml version="1.0" ?><svg data-name="Layer 1" height="24" id="Layer_1" viewBox="0 0 24 24" width="24" xmlns="http://www.w3.org/2000/svg"><title/><rect height="7.1502" width="1.5" x="11.25" y="14.3"/><path d="M5,20.75A.75019.75019,0,0,1,4.25,20V18a.75.75,0,0,1,1.5,0v2A.75019.75019,0,0,1,5,20.75Z"/><path d="M19,20.75a.75019.75019,0,0,1-.75-.75V18a.75.75,0,0,1,1.5,0v2A.75019.75019,0,0,1,19,20.75Z"/><path d="M12,16.78564,8.03662,15.54736l-2.748,1.145a.75011.75011,0,1,1-.57715-1.38477l3.252-1.355L12,15.21436l4.03662-1.26172,3.252,1.355a.75011.75011,0,1,1-.57715,1.38477l-2.748-1.145Z"/><path d="M12,19.53564,7.77637,18.21582a.74994.74994,0,1,1,.44727-1.43164L12,17.96436l3.77637-1.18018a.74994.74994,0,1,1,.44727,1.43164Z"/><path d="M12,22.23584,7.77637,20.916a.74994.74994,0,1,1,.44727-1.43164L12,20.66455l3.77637-1.18018a.74994.74994,0,1,1,.44727,1.43164Z"/><path d="M12.41669,2h-.83337A4.62227,4.62227,0,0,0,7,6.66028v2.645A1.68087,1.68087,0,0,0,8.66669,11h.92316l.74347,2h3.33337l.74347-2h.92316A1.68087,1.68087,0,0,0,17,9.3053v-2.645A4.62227,4.62227,0,0,0,12.41669,2ZM10.929,7.47015c-.30786,1.339-.7995,1.31061-1.44788,1.28888-.688-.02356-1.14813-.08893-1.29236-.39478C7.83545,7.9472,7.89038,5.83295,9.59,6.54675,10.3595,6.86993,11.02448,7.12616,10.929,7.47015Zm1.52661,2.96051c-.36169,0-.27515-.41968-.4613-.41638-.19556.00366-.13593.41638-.487.41638a.369.369,0,0,1-.36169-.46625,4.52949,4.52949,0,0,1,.52008-1.0246.3695.3695,0,0,1,.63153,0,4.51337,4.51337,0,0,1,.52045,1.0246A.36941.36941,0,0,1,12.45557,10.43066Zm3.36035-2.06641c-.14423.30585-.60437.37122-1.29242.39478-.64832.02173-1.14.05011-1.44781-1.28888-.09552-.344.56946-.60022,1.339-.9234C16.1142,5.83295,16.16913,7.9472,15.81592,8.36426Z"/></svg>